<?xml version="1.0" standalone="no"?>
<!DOCTYPE svg PUBLIC "-//W3C//DTD SVG 20010904//EN"
 "http://www.w3.org/TR/2001/REC-SVG-20010904/DTD/svg10.dtd">
<svg version="1.0" xmlns="http://www.w3.org/2000/svg"
 width="1280.000000pt" height="1280.000000pt" viewBox="0 0 1280.000000 1280.000000"
 preserveAspectRatio="xMidYMid meet">
<metadata>
Created by potrace 1.14, written by Peter Selinger 2001-2017
</metadata>
<g transform="translate(0.000000,1280.000000) scale(0.100000,-0.100000)"
fill="#000000" stroke="none">
<path d="M4646 7583 c-3 -4 -6 -14 -6 -23 0 -14 13 -19 68 -24 148 -14 224
-58 279 -163 18 -32 70 -150 116 -263 47 -113 144 -349 217 -525 73 -176 151
-367 175 -425 24 -58 102 -249 175 -425 73 -176 145 -350 160 -387 47 -114 61
-133 101 -133 33 0 35 3 79 90 25 50 84 180 132 290 195 451 331 761 418 955
98 219 251 564 319 720 50 115 94 183 143 223 29 23 53 32 116 41 88 12 101
18 83 40 -10 12 -71 14 -374 15 -199 0 -369 -4 -376 -8 -31 -20 -3 -36 84 -47
141 -19 147 -37 78 -224 -28 -75 -267 -680 -568 -1435 -13 -33 -28 -61 -33
-63 -5 -1 -20 28 -34 65 -31 81 -392 1035 -484 1277 -65 170 -94 266 -94 305
0 43 41 69 120 77 71 7 100 25 70 44 -15 9 -955 12 -964 3z"/>
<path d="M9766 7138 c-8 -13 -127 -306 -266 -652 -138 -346 -260 -644 -271
-663 -31 -49 -74 -75 -137 -82 -53 -6 -81 -26 -46 -33 9 -1 120 -2 246 0 174
2 228 6 225 15 -2 7 -27 14 -56 17 -58 6 -71 18 -71 67 0 25 61 202 125 366 7
15 27 17 229 17 l221 0 78 -204 c42 -112 77 -211 77 -221 0 -9 -9 -19 -20 -22
-11 -3 -20 -12 -20 -19 0 -11 26 -14 130 -15 337 -2 360 -1 360 16 0 10 -10
15 -34 15 -98 0 -149 39 -207 160 -20 41 -137 325 -259 630 -122 305 -231 572
-241 593 -22 42 -42 47 -63 15z m73 -606 c45 -122 81 -227 81 -232 0 -6 -71
-10 -181 -10 -168 0 -181 1 -174 18 4 9 45 120 92 245 53 141 89 224 94 215 4
-7 44 -113 88 -236z"/>
<path d="M8007 7133 c-7 -11 -47 -218 -47 -244 0 -35 29 -20 53 28 38 78 58
85 275 92 103 4 191 4 195 0 5 -3 7 -271 5 -595 -4 -711 6 -661 -127 -676 -14
-2 -26 -9 -29 -15 -3 -10 61 -13 297 -13 261 0 301 2 301 15 0 11 -12 15 -47
15 -27 0 -64 5 -84 10 -70 19 -69 13 -69 678 l0 587 132 -3 c73 -2 157 -7 187
-12 64 -12 119 -44 125 -73 14 -67 18 -77 30 -77 10 0 15 32 20 132 4 74 3
135 -2 140 -5 5 -43 5 -93 -2 -171 -21 -956 -10 -1085 16 -18 3 -34 2 -37 -3z"/>
<path d="M3285 7118 c-44 -4 -233 -7 -420 -6 -343 3 -420 -5 -280 -28 44 -7
74 -18 88 -33 l22 -22 3 -571 c2 -570 -2 -666 -32 -696 -7 -8 -38 -17 -67 -20
-30 -4 -53 -11 -52 -17 4 -14 829 -30 859 -17 26 12 39 61 49 188 6 60 4 83
-5 89 -16 10 -26 -8 -34 -55 -7 -44 -36 -84 -79 -108 -26 -14 -58 -17 -174
-17 -128 0 -144 2 -170 21 -51 38 -53 49 -53 327 l0 257 145 0 c201 0 228 -13
241 -115 6 -42 16 -56 27 -37 8 12 30 293 24 298 -3 3 -20 -5 -37 -18 -30 -22
-41 -23 -216 -26 l-184 -4 0 257 0 257 153 -5 c221 -7 244 -18 262 -125 4 -26
12 -41 18 -39 13 4 20 46 32 190 8 100 22 91 -120 75z"/>
<path d="M4470 7118 c-41 -5 -230 -7 -419 -6 -249 2 -345 0 -348 -8 -2 -7 18
-14 53 -19 31 -4 67 -11 80 -17 48 -22 49 -36 49 -618 0 -300 -4 -571 -8 -602
-11 -75 -30 -98 -87 -104 -25 -3 -51 -8 -59 -10 -49 -16 53 -23 431 -29 l426
-7 16 24 c29 45 50 274 24 266 -7 -3 -18 -23 -24 -45 -35 -121 -67 -138 -259
-138 -225 0 -219 -9 -223 342 l-3 263 148 0 c121 0 154 -3 183 -18 40 -19 60
-53 60 -99 0 -30 15 -52 27 -39 3 3 9 56 13 118 5 62 11 130 15 151 9 44 -2
47 -46 15 -29 -22 -40 -23 -212 -23 l-182 0 0 250 0 250 150 -1 c213 0 248
-16 261 -116 7 -48 16 -59 30 -36 4 7 11 57 15 113 4 55 10 112 14 128 8 31 8
31 -125 15z"/>
<path d="M1236 7113 c-14 -15 -3 -21 51 -28 82 -10 110 -27 120 -73 11 -49 10
-1113 0 -1176 -12 -67 -42 -96 -102 -96 -31 0 -45 -4 -45 -13 0 -19 577 -32
671 -16 149 26 275 114 334 235 26 53 29 69 29 159 0 89 -3 106 -27 156 -46
92 -153 188 -261 233 l-38 16 67 71 c89 95 109 140 109 249 1 68 -3 93 -21
125 -35 65 -89 108 -178 140 -44 16 -92 18 -376 21 -180 2 -329 1 -333 -3z
m596 -103 c45 -30 94 -104 109 -163 15 -63 8 -183 -15 -230 -10 -21 -35 -50
-54 -65 -33 -25 -43 -27 -131 -27 l-96 0 -3 245 c-1 134 0 251 3 258 4 11 23
13 79 10 57 -2 81 -9 108 -28z m24 -596 c130 -61 225 -249 212 -417 -10 -125
-75 -193 -201 -212 -64 -10 -152 11 -190 45 l-32 28 -3 293 -3 292 89 -5 c56
-3 103 -12 128 -24z"/>
<path d="M7236 7113 c-14 -14 -3 -21 42 -27 72 -11 81 -15 99 -49 14 -28 17
-83 21 -427 2 -217 0 -491 -5 -608 -11 -247 -12 -251 -102 -260 -34 -3 -51 -9
-51 -18 0 -12 46 -14 253 -16 283 -1 316 -1 335 7 27 10 0 25 -46 25 -26 0
-63 4 -82 10 -67 19 -65 -7 -68 640 -2 322 0 599 3 616 9 49 27 65 90 77 119
24 66 32 -212 34 -149 1 -274 -1 -277 -4z"/>
<path d="M10596 7113 c-14 -14 -3 -21 46 -27 60 -8 102 -28 114 -53 13 -27 17
-1018 5 -1143 -10 -94 -14 -107 -36 -127 -19 -17 -39 -23 -71 -23 -30 0 -44
-4 -44 -13 0 -11 80 -15 433 -21 238 -4 445 -4 460 -1 33 9 44 41 59 166 16
139 -1 170 -36 63 -18 -55 -54 -96 -101 -115 -18 -7 -84 -11 -166 -11 -114 0
-143 3 -181 20 -75 33 -73 18 -73 644 0 540 0 547 21 575 18 24 31 29 88 37
42 5 65 13 63 20 -4 12 -569 20 -581 9z"/>
</g>
</svg>
